<?xml version="1.0" encoding="UTF-8" standalone="no"?>
<!-- Generator: Adobe Illustrator 14.0.0, SVG Export Plug-In . SVG Version: 6.00 Build 43363)  -->

<svg
   xmlns:dc="http://purl.org/dc/elements/1.1/"
   xmlns:cc="http://creativecommons.org/ns#"
   xmlns:rdf="http://www.w3.org/1999/02/22-rdf-syntax-ns#"
   xmlns:svg="http://www.w3.org/2000/svg"
   xmlns="http://www.w3.org/2000/svg"
   xmlns:sodipodi="http://sodipodi.sourceforge.net/DTD/sodipodi-0.dtd"
   xmlns:inkscape="http://www.inkscape.org/namespaces/inkscape"
   version="1.1"
   id="Layer_1"
   x="0px"
   y="0px"
   width="1000"
   height="1000"
   viewBox="0 0 999.99998 999.99995"
   enable-background="new 0 0 145.468 145.46"
   xml:space="preserve"
   inkscape:version="0.91 r13725"
   sodipodi:docname="PBS Kids Dash 2010.svg"><metadata
     id="metadata51"><rdf:RDF><cc:Work
         rdf:about=""><dc:format>image/svg+xml</dc:format><dc:type
           rdf:resource="http://purl.org/dc/dcmitype/StillImage" /><dc:title></dc:title></cc:Work></rdf:RDF></metadata><defs
     id="defs49" /><sodipodi:namedview
     pagecolor="#ffffff"
     bordercolor="#666666"
     borderopacity="1"
     objecttolerance="10"
     gridtolerance="10"
     guidetolerance="10"
     inkscape:pageopacity="0"
     inkscape:pageshadow="2"
     inkscape:window-width="1366"
     inkscape:window-height="705"
     id="namedview47"
     showgrid="false"
     fit-margin-top="0"
     fit-margin-left="0"
     fit-margin-right="0"
     fit-margin-bottom="0"
     inkscape:zoom="0.35355339"
     inkscape:cx="797.50994"
     inkscape:cy="509.85659"
     inkscape:window-x="-8"
     inkscape:window-y="-8"
     inkscape:window-maximized="1"
     inkscape:current-layer="Layer_1" /><g
     id="g3"
     transform="matrix(0.5,0,0,0.5,0,927.26997)"><path
       d="M 1000.0221,-1854.54 C 447.72499,-1854.54 0,-1406.8551 0,-854.5089 c 0,552.24323 447.72499,999.88403 1000.0221,999.88403 552.2383,0 999.9779,-447.6408 999.9779,-999.88403 0,-552.3609 -447.7543,-1000.0311 -999.9779,-1000.0311"
       id="path7"
       inkscape:connector-curvature="0"
       style="fill:#99cc00" /><path
       d="m 271.25224,-1303.5025 c 0.80869,-124.129 68.43061,-237.2449 179.56051,-323.6147 156.97577,-115.1891 349.32842,-182.3558 556.84045,-180.6649 199.8663,1.6469 384.5878,66.7844 536.6673,176.6214 118.9816,89.3546 191.2498,207.9698 190.4264,337.7156 -0.9116,146.6404 -95.1618,277.9009 -244.2858,367.94651 l 0.088,0.0441 c -143.5073,87.79607 -311.393,137.59765 -490.58605,136.18608 C 786.37804,-790.90056 589.87898,-865.2868 432.46211,-989.20996 330.84545,-1075.4034 270.50182,-1184.8874 271.2517,-1303.5026"
       id="path9"
       inkscape:connector-curvature="0"
       style="fill:#ffffff" /><path
       d="m 1136.0158,-1475.0952 c 36.9062,-20.247 43.758,-74.6803 43.8316,-91.7807 -0.088,-75.1656 -58.05,-125.276 -161.9016,-125.2318 -38.86166,-0.059 -82.01677,4.8816 -142.27217,17.4532 l 0,0.03 c -3.08776,0.647 -5.35212,3.5143 -5.39623,6.9109 0.0294,0.544 0.0882,1.1615 0.20585,1.7203 15.83579,95.8096 15.08591,245.2437 2.29377,396.4276 -0.20586,0.5 -0.27937,1.044 -0.27937,1.6468 0,3.4554 2.60254,6.3374 5.89615,6.7637 37.24425,8.2341 110.87994,15.5713 151.8442,15.5713 98.3672,-0.059 172.2235,-53.9922 172.0911,-131.7309 0.074,-48.8605 -21.8201,-78.5032 -66.3133,-97.7798 m -119.261,-125.2025 c 37.0678,0.044 62.2257,19.2767 62.6228,46.9345 0.8821,52.6099 -85.92809,44.4935 -92.66228,43.0231 l -0.70578,-86.0757 c -0.49993,0.074 4.60219,-3.8819 30.74526,-3.8819 m 9.8808,266.6084 c -14.4243,0.059 -27.49579,-1.2205 -40.12614,-4.4111 l 0.11763,-87.8108 c 0,0 21.23201,-2.5879 33.14191,-2.529 32.098,0.044 71.9302,11.2483 71.2685,43.3172 -0.4411,26.4226 -9.1163,51.4925 -64.4019,51.4337"
       id="path11"
       inkscape:connector-curvature="0"
       style="fill:#000000" /><path
       d="m 611.86141,-1640.1594 c -43.37565,9.9104 -90.3978,25.908 -120.9225,41.0528 -0.0882,0 -0.0882,0.03 -0.14704,0.03 -6.77837,2.5732 -3.55827,8.5722 -3.52887,8.6604 30.74525,71.4897 84.35463,313.2633 92.11813,394.0163 l 0,0.059 c -0.0736,0.6029 0.0588,1.1322 0.19115,1.8085 0.83811,3.6319 4.52871,6.014 8.16051,5.1464 0.10288,0 101.52844,-30.819 101.57255,-30.8779 3.82294,-0.8087 6.13141,-4.4404 5.32271,-8.19 -0.11763,-0.1617 -0.19115,-0.3087 -0.22055,-0.4264 -0.47052,-2.0584 -1.08807,-4.6757 -2.05852,-8.8516 l -5.46974,-20.8793 -16.65918,-75.842 c 0,0 26.0695,-5.3521 27.90745,-5.7491 109.92421,-25.2464 168.15051,-108.6313 148.08008,-196.3538 -20.70269,-90.2369 -113.33544,-131.4662 -234.34618,-103.6025 m 53.21238,209.2784 c -8.05759,1.9261 -17.12971,2.6613 -17.01209,2.6319 l -25.95187,-113.3806 c 0,0 20.52625,-6.7491 29.15726,-8.7781 43.36096,-9.8956 75.57657,9.2192 83.47241,43.9054 8.27814,35.7889 -14.08606,62.9025 -69.66571,75.6214"
       id="path13"
       inkscape:connector-curvature="0"
       style="fill:#000000" /><path
       d="m 1456.2605,-1516.6039 c 1.1469,1.3381 7.3812,4.4846 9.2192,4.6464 3.2201,0.2058 4.514,-1.4263 4.514,-1.4263 0,-0.074 0,-0.074 0,-0.074 6.5137,-5.1757 -0.5734,0.9557 55.4032,-64.3288 1.0881,-0.9558 1.7939,-2.382 2.1762,-3.9994 0.5881,-3.1319 -2.2203,-6.2933 -2.3967,-6.161 -0.397,0.3823 -53.6094,-49.8015 -131.9356,-58.1973 -97.5144,-10.4838 -165.9597,47.5224 -171.2678,132.3336 -4.3374,70.8574 44.4638,110.925 140.5079,142.4352 68.5629,22.5115 45.3018,69.6811 3.1024,67.7842 -27.0105,-1.2203 -68.2689,-19.9676 -93.9119,-44.4052 0,0 -0.9852,-1.3675 -3.7642,-1.8085 -2.4408,-0.4264 -4.7934,0.5734 -6.2049,2.3378 l -54.8738,63.1967 c 0,0.059 -1.5292,2.3378 -1.9115,3.8524 -0.6911,3.7936 2.2791,6.0138 2.2791,6.0726 39.0526,40.5236 92.8679,63.4173 146.095,66.755 91.3389,5.6463 157.2845,-48.4047 163.8571,-128.893 7.0577,-85.5022 -66.7104,-116.8359 -118.7905,-134.1864 -44.8901,-14.939 -63.9166,-28.7899 -62.064,-48.2282 1.985,-19.4532 39.3763,-47.7578 119.9668,2.2937"
       id="path15"
       inkscape:connector-curvature="0"
       style="fill:#000000" /><path
       d="m 1662.2287,-781.32836 c 58.8439,24.51113 126.4805,-3.20543 151.0208,-62.09392 24.7021,-58.81498 -3.0731,-126.45221 -61.9022,-151.03687 -58.7997,-24.61415 -126.554,3.1172 -151.0944,61.94688 -24.6286,58.8738 3.1025,126.54043 61.9758,151.18391"
       id="path17"
       inkscape:connector-curvature="0"
       style="fill:#ffffff" /><path
       d="m 1428.7206,-508.66212 c -1.9996,-58.03569 -50.6246,-103.49967 -108.5715,-101.49997 -57.991,1.95561 -103.4692,50.61031 -101.4989,108.57247 2.0289,57.99157 50.595,103.45555 108.5567,101.49994 58.0498,-2.01442 103.5281,-50.6691 101.5137,-108.57244"
       id="path19"
       inkscape:connector-curvature="0"
       style="fill:#ffffff" /><path
       d="m 889.27447,-173.04917 c 102.14598,-25.27573 164.26883,-128.08431 138.90503,-229.64307 -25.4373,-101.51465 -128.81835,-163.27039 -230.87613,-137.90642 -102.07248,25.29045 -164.25405,128.01079 -138.84621,229.64308 25.42254,101.47054 128.75953,163.25567 230.81731,137.90641"
       id="path21"
       inkscape:connector-curvature="0"
       style="fill:#ffffff" /><path
       d="m 1235.9709,-151.44936 c 26.9371,-18.92372 33.4066,-56.31535 14.3654,-83.14968 -19.0265,-26.79021 -56.6675,-33.28928 -83.6046,-14.33615 -27.0252,18.96783 -33.4066,56.31535 -14.336,83.20849 9.2339,12.99812 23.0111,21.65861 38.8469,24.36411 15.7329,2.67607 31.6421,-0.85282 44.7283,-10.08677 m -49.9774,-37.96508 c -6.0285,-8.46935 -3.97,-20.0706 4.4846,-26.05503 8.4545,-5.95501 20.2909,-3.99941 26.2606,4.49935 5.9254,8.41054 3.8669,20.15884 -4.4993,26.11385 -4.1758,2.80842 -9.1163,3.8965 -14.1155,3.08778 -4.9404,-0.88222 -9.2192,-3.5436 -12.1304,-7.64595"
       id="path23"
       inkscape:connector-curvature="0"
       style="fill:#000000" /><path
       d="m 1331.8826,-143.62697 c -80.1493,98.338644 -210.8939,109.46938 -212.1436,109.645824 l -0.9264,0.02941 -0.9704,0.132333 C 965.73324,-10.175781 845.76648,-84.10621 844.6343,-84.944324 c -10.73364,-6.660795 -24.93733,-3.411274 -31.71569,7.293063 -6.85188,10.719031 -3.60238,24.981659 7.05772,31.774788 5.42564,3.367158 134.58218,83.605492 303.89437,57.771013 10.5865,-0.867522 152.3734,-14.2479285 243.6976,-126.39339 3.47,-4.20527 5.0875,-9.08692 5.2492,-14.02737 0.059,-6.88136 -2.882,-13.76271 -8.6016,-18.37968 -9.7927,-8.07236 -24.3052,-6.55787 -32.3333,3.27893"
       id="path25"
       inkscape:connector-curvature="0"
       style="fill:#000000" /><path
       d="m 791.74541,-563.02187 c -55.49143,13.748 -102.26363,48.3018 -131.70026,97.07413 -29.15726,48.62527 -37.67065,105.63169 -23.98159,160.47666 28.4809,113.73346 144.50711,183.09103 258.78357,154.84513 55.47674,-13.83623 102.27828,-48.21358 131.70017,-97.22116 29.2455,-48.50765 37.7443,-105.52878 23.967,-160.43256 -28.481,-113.65994 -144.52182,-183.06162 -258.76889,-154.7422 m -110.95346,246.36123 c -10.71893,-42.86141 -4.0729,-87.44316 18.80592,-125.54057 23.01115,-38.28854 59.77018,-65.35813 103.32228,-76.07716 89.53029,-22.29089 180.60448,32.12767 202.80695,121.21767 2.9554,11.52773 4.6316,23.2172 5.014,34.77435 1.0292,31.67186 -7.0579,62.97613 -23.6876,90.64858 -23.1288,38.40618 -59.74079,65.49048 -103.29288,76.23891 -89.60382,22.18796 -180.678,-32.12767 -202.96867,-121.26178"
       id="path27"
       inkscape:connector-curvature="0"
       style="fill:#000000" /><path
       d="m 738.31248,-264.66819 c 37.64125,4.80813 71.95948,-21.59981 76.95871,-58.97673 4.8963,-37.43572 -21.52609,-71.71016 -59.22616,-76.50357 -37.55302,-4.88165 -72.0624,21.49687 -76.95869,58.87379 -4.89631,37.47984 21.5849,71.72486 59.22614,76.60651"
       id="path29"
       inkscape:connector-curvature="0"
       style="fill:#000000" /><path
       d="m 1198.021,-501.01619 c 2.3967,69.23994 60.7258,123.70262 129.8476,121.24709 69.2245,-2.3232 123.6426,-60.53533 121.3195,-129.76056 -2.3968,-69.12229 -60.6084,-123.58496 -129.8624,-121.26177 -69.2246,2.3379 -123.6426,60.66765 -121.3047,129.77524 m 37.4941,-1.191 c -1.6027,-48.49294 36.612,-89.45757 85.1192,-91.0897 48.669,-1.63211 89.5745,36.58292 91.1918,85.1935 1.6763,48.55177 -36.5678,89.45759 -85.1044,91.0897 -48.6691,1.67623 -89.5598,-36.5682 -91.2066,-85.1935"
       id="path31"
       inkscape:connector-curvature="0"
       style="fill:#000000" /><path
       d="m 1276.8617,-445.53896 c 25.2167,3.23483 48.3455,-14.5567 51.6097,-39.74422 3.2936,-25.27573 -14.439,-48.40472 -39.7733,-51.69836 -25.2461,-3.32305 -48.3455,14.54201 -51.7126,39.7001 -3.1466,25.26104 14.6301,48.40473 39.8762,51.74248"
       id="path33"
       inkscape:connector-curvature="0"
       style="fill:#000000" /><path
       d="m 1547.173,-490.47359 c -27.4811,-138.36224 -106.1454,-258.25657 -222.1275,-339.53888 l 0.03,0 c -0.2059,-0.11763 -0.3382,-0.22055 -0.5146,-0.30877 -4.514,-3.16131 -8.8516,-6.35201 -13.5273,-9.45451 -17.3504,-11.29248 -35.2153,-21.52628 -53.3742,-30.71613 -132.0236,-70.78382 -348.54912,-139.80322 -844.72253,62.06452 l 91.5153,84.64945 -180.39863,64.46122 139.2138,90.3398 -162.06322,59.88836 151.88832,107.70492 c -50.25695,25.59923 -85.29565,77.07703 -86.57487,137.37709 -1.80853,87.16379 67.69544,159.59444 154.85845,161.4177 13.10092,0.24997 25.68721,-1.26452 37.93533,-3.98472 116.92311,181.061918 336.55097,284.35572 560.76645,242.93528 139.4049,-25.70215 260.5773,-103.190884 341.3296,-218.188876 83.8547,-119.600254 114.3206,-264.770324 85.7663,-408.646454 m -1024.84194,342.8325 c -62.43155,-1.26453 -112.11505,-53.10993 -110.80643,-115.49791 0.98514,-45.36106 28.77496,-84.0025 67.88657,-101.11766 1.51448,22.87903 4.49931,45.9198 9.04273,69.04879 10.33664,52.37474 28.20153,101.3382 52.1096,146.36107 -5.95496,0.86753 -11.98343,1.29393 -18.23247,1.20571 m 899.71414,39.90596 C 1348.3948,-2.8680217 1238.0441,67.78347 1111.2255,91.088906 843.54624,140.46408 582.83648,-36.289634 529.81526,-302.89793 c -20.3057,-102.69095 -6.88129,-203.92623 32.65672,-292.54571 l 704.90582,-216.85081 c 5.6463,3.47008 11.3365,7.01368 16.9239,10.6014 113.2326,74.32743 190.0002,187.91385 216.1284,319.80644 26.2019,131.86318 -1.6761,264.78503 -78.3849,374.15148"
       id="path35"
       inkscape:connector-curvature="0"
       style="fill:#000000" /><path
       d="m 1555.0689,-714.38221 c -17.8503,29.30456 -8.6311,67.49018 20.4084,85.17879 29.2455,18.0709 67.2691,8.89575 85.2516,-20.30588 17.8796,-29.21634 8.6899,-67.35786 -20.4675,-85.26701 -29.1131,-17.86505 -67.3425,-8.76344 -85.1925,20.3941"
       id="path37"
       inkscape:connector-curvature="0"
       style="fill:#ffffff" /><path
       d="m 940.57537,-987.26902 0.11763,0.0441 -3.2642,-16.76228 -2.29377,-31.0543 -0.0588,-1.1911 -4.60223,-95.045 -0.0882,-1.3527 -0.44112,-30.5543 1.47036,-15.3949 -0.0294,-0.2647 c -0.0294,-0.8234 -0.61755,-1.4703 -1.41154,-1.4703 0,0 -13.63024,0.6469 -26.52531,1.3086 -13.08622,0.647 -26.59884,1.3528 -26.59884,1.3528 -0.69106,0 -1.26451,0.6469 -1.29392,1.5145 l -0.0588,0 0.0882,0.2646 2.91132,15.1301 2.49962,30.4514 0.10288,1.4705 4.52871,95.045 0.0588,1.1469 0.80871,31.2013 -1.73503,16.90937 c 0,0.16175 -0.0294,0.22057 0,0.26467 0,0.94105 0.73518,1.5733 1.54388,1.5733 l 2.57312,-0.16174 47.83086,-2.33789 2.67605,-0.14704 c 0.83811,0 1.35274,-0.72049 1.35274,-1.61741 0.0882,-0.0736 -0.16174,-0.24997 -0.16174,-0.32349"
       id="path39"
       inkscape:connector-curvature="0"
       style="fill:#000000" /><path
       d="m 1176.0538,-1076.3148 c -2.3819,62.0645 -60.3436,97.05933 -119.1582,94.83906 -13.836,-0.58814 -16.4386,-0.91164 -29.216,-1.9703 -12.704,-1.01455 -29.73072,-1.1469 -29.73072,-1.1469 l -2.69083,-0.0882 c -0.83802,0 -1.44087,-0.77929 -1.42622,-1.64681 0.015,-0.14704 0,-0.26467 0.015,-0.30878 l -0.015,0 3.3818,-17.20337 1.88212,-31.6866 -0.0299,-1.191 3.71995,-96.8536 0.1618,-1.5145 0.088,-31.1572 -1.7792,-15.6595 0.059,-0.2794 c 0,-0.8087 0.7351,-1.5292 1.4702,-1.4703 0,0 12.2923,0.544 17.0269,0.6175 6.6607,0 28.7309,-0.9852 43.4344,-0.397 64.2696,2.9407 115.2029,43.5819 112.8063,107.1169 m -112.0858,-63.1968 c -4.5728,-0.2205 -6.6901,0.059 -10.3219,0.6322 l -0.3676,5.6463 0,1.5586 -3.7347,96.8977 0,1.191 -0.1911,10.425 c 3.47,0.6616 6.4842,1.2057 9.822,1.3527 30.7159,1.1469 64.0342,-16.6594 65.5046,-52.7718 1.3528,-37.7591 -30.5542,-63.7995 -60.7113,-64.9317"
       id="path41"
       inkscape:connector-curvature="0"
       style="fill:#000000" /><path
       d="m 845.63415,-984.73998 -85.4868,-82.39972 c 18.45303,-21.2176 38.39112,-41.0676 59.60843,-59.3444 0,0 0,0 0,-0.059 0.397,-0.3235 0.63226,-0.9263 0.55874,-1.4115 -0.0735,-0.4412 -0.36759,-0.8234 -0.63225,-1.044 l -34.14179,-33.995 c -0.4264,-0.3235 -0.7793,-0.5 -1.23511,-0.4412 -0.19114,0.1027 -0.4705,0.1471 -0.58813,0.2647 0,0 0,-0.059 -0.0882,0 -32.65673,28.8046 -63.82839,62.4615 -90.22137,97.6476 l -6.52841,-36.3477 -0.23526,-1.338 -4.46989,-30.231 -0.44112,-15.4095 -0.0588,-0.3088 c -0.24996,-0.7645 -0.88222,-1.4262 -1.6468,-1.2351 0,0 -13.33617,2.382 -26.08421,4.764 -12.89506,2.3379 -26.23124,4.6612 -26.23124,4.6612 -0.73518,0.1617 -1.2204,0.9704 -1.07337,1.735 l 0,0.3234 4.91101,14.645 6.44019,29.8338 0.23526,1.3675 16.93855,93.63349 0.26467,1.14689 4.69044,30.74552 0.55875,17.15928 0,0 c 0,0.0882 0,0.14704 0,0.20585 0.17644,0.91163 0.94102,1.5292 1.6468,1.27922 l 0,0.0588 2.66135,-0.42642 47.03687,-8.51347 2.61723,-0.54403 c 0.91163,-0.16174 1.39685,-0.92634 1.16159,-1.67623 0.0294,-0.22056 -0.0588,-0.27937 -0.0588,-0.36759 l 0.0588,0 -5.51385,-16.18882 -3.69061,-18.11502 0.32348,-1.20571 c 7.54294,-11.83646 15.4682,-23.32006 23.74634,-34.53896 l 56.18249,58.31492 0,-0.0588 c 0.26467,0.397 0.77929,0.66166 1.24981,0.60285 0.0441,0 0.0441,-0.0588 0.11763,-0.11763 l 0,0.0588 56.84417,-10.2338 0,-0.0735 c 0.11763,-0.0588 0.11763,0 0.11763,0 0.79399,-0.10288 1.32332,-0.97046 1.17628,-1.79387 -0.17643,-0.48521 -0.47051,-0.8087 -0.72047,-1.02926"
       id="path43"
       inkscape:connector-curvature="0"
       style="fill:#000000" /><path
       d="m 1381.2573,-1008.7218 c 11.6013,-85.4435 -115.6145,-70.7837 -111.718,-98.4563 2.4408,-18.2326 53.6094,-23.8347 90.4125,17.6152 0,0 0,0 0,0.044 0.3235,0.1765 0.5587,0.3823 0.8822,0.4411 0.6029,0 0.9704,-0.2058 1.3822,-0.6028 l 0,-0.059 c 5.2933,-5.5728 25.4225,-27.8784 29.6718,-32.7159 0.029,0 0.1765,-0.044 0.029,-0.1618 0.2059,-0.2058 0.2647,-0.4116 0.3383,-0.7351 0.059,-0.397 0.059,-0.7645 -0.1471,-1.1028 l 0.059,0 c 0,0 -0.059,0 -0.1177,-0.044 -0.074,0 0,-0.059 -0.074,-0.059 -29.466,-49.3752 -163.5042,-71.519 -174.7817,10.9543 -11.1013,79.9148 119.7755,75.8419 113.5412,101.1177 -5.8227,23.276 -72.1065,17.95324 -98.6907,-25.0699 -0.2793,-0.397 -0.7499,-0.6616 -1.088,-0.7058 -0.3823,0 -0.8087,0 -1.1911,0.3823 -6.0138,4.7787 -29.51,24.7317 -35.0533,29.731 -0.1764,0.1029 -0.1176,0.1764 -0.2647,0.2793 -0.2351,0.2794 -0.3234,0.4706 -0.4558,0.8676 0.059,0.544 0.059,0.8087 0.3383,1.2645 0,0 -0.059,0.044 0,0 52.0653,75.75368 175.3993,80.35595 186.9269,-2.9849"
       id="path45"
       inkscape:connector-curvature="0"
       style="fill:#000000" /></g></svg>